<svg width="150" height="150" viewBox="0 0 150 150" fill="none" xmlns="http://www.w3.org/2000/svg">
<g clip-path="url(#clip0_824_20)">
<path d="M101.023 82.5089C100.962 81.7632 100.583 81.0762 99.9871 80.628C101.203 75.6871 101.13 71.6215 101.071 70.4165C101.063 67.4026 100.531 64.4516 99.4916 61.6443C99.308 61.1483 98.7568 60.8946 98.2607 61.0787C97.7647 61.2623 97.5114 61.8134 97.6951 62.3096C98.6585 64.9115 99.1501 67.6482 99.1559 70.4433C99.1559 70.4585 99.1562 70.4736 99.1571 70.4887C99.2112 71.58 99.2878 75.3311 98.1821 79.9472L96.0137 79.3661C97.0779 74.8816 96.9638 71.2945 96.9274 70.5847L96.9255 70.546C96.9246 70.5287 96.9242 70.5114 96.9242 70.4942C96.9242 65.3847 95.1223 60.6876 92.1217 57.003L93.7122 55.4122C94.7772 56.6997 95.7187 58.1112 96.511 59.6361C96.7548 60.1056 97.3334 60.2884 97.8025 60.0445C98.272 59.8007 98.4549 59.2224 98.2109 58.753C97.2009 56.8089 95.9466 55.0119 94.4899 53.3971C94.4824 53.3881 94.4756 53.3787 94.4676 53.3699C94.4485 53.3488 94.4287 53.3284 94.4096 53.3076C94.3021 53.1895 94.1932 53.0726 94.0834 52.9565C94.0229 52.8924 93.9619 52.829 93.9007 52.7657C93.7844 52.6453 93.6679 52.5251 93.5494 52.407C93.5198 52.3775 93.4895 52.3487 93.4598 52.3194C93.0139 51.8793 92.5515 51.4556 92.0739 51.0486C92.0623 51.0388 92.0508 51.0288 92.0392 51.019C91.0748 50.2002 90.0505 49.4483 88.9683 48.776C85.1414 46.3984 80.7608 45.0849 76.2562 44.9558C76.2142 44.9545 76.1721 44.9535 76.1299 44.9524C75.9275 44.9476 75.7249 44.9444 75.5218 44.9444C75.5086 44.9443 75.4951 44.9444 75.4844 44.9444C75.2593 44.9444 75.0348 44.9475 74.8111 44.9534C74.8093 44.9534 74.8074 44.9535 74.8057 44.9535C69.728 45.0868 65.0129 46.7131 61.0829 49.4067C61.0743 49.4126 61.0657 49.4187 61.0571 49.4246C60.903 49.5304 60.75 49.6378 60.5984 49.7469C60.535 49.7925 60.472 49.8388 60.4089 49.885C60.3155 49.9534 60.2223 50.0223 60.13 50.092C60.0277 50.1691 59.9261 50.2471 59.8248 50.3256C59.7768 50.363 59.7288 50.4005 59.681 50.4384C59.5468 50.5441 59.4135 50.6511 59.2813 50.7596C59.2734 50.766 59.2659 50.7724 59.2581 50.7788C58.2956 51.5705 57.3852 52.4346 56.5392 53.3699C56.5155 53.3959 56.4941 53.4231 56.4738 53.4511C52.4279 57.9587 49.9548 63.9053 49.9353 70.4165C49.8788 71.5863 49.8055 75.4985 50.9364 80.2854C50.3861 80.5008 49.9276 80.8917 49.6279 81.411C49.4304 81.7528 49.3181 82.1269 49.2875 82.5091C46.0593 83.5838 44.1813 87.0128 45.0733 90.3417L47.5431 99.5587C47.9915 101.233 49.065 102.632 50.5658 103.498C51.5653 104.075 52.6748 104.37 53.7989 104.37C54.2346 104.37 54.6728 104.325 55.1075 104.235C55.5929 104.937 56.4007 105.367 57.2619 105.367C57.4854 105.367 57.7124 105.338 57.9385 105.277L62.7454 103.989C64.1391 103.616 64.9695 102.178 64.5961 100.784L64.1475 99.1097C64.0108 98.5987 63.4854 98.2953 62.9743 98.4325C62.4632 98.5692 62.1601 99.0947 62.297 99.6057L62.7455 101.28C62.8456 101.653 62.623 102.039 62.2496 102.139L57.4425 103.427C57.0693 103.527 56.6842 103.305 56.5839 102.931L56.5668 102.867C56.5668 102.867 56.5666 102.867 56.5666 102.866C56.5666 102.866 56.5664 102.866 56.5664 102.865L51.2346 82.9663V82.9661L51.2345 82.9658L51.2171 82.9011C51.1685 82.7201 51.1934 82.5313 51.287 82.3691C51.3807 82.2069 51.5318 82.0909 51.7129 82.0424L54.9348 81.1791L56.355 80.7986C56.3556 80.7985 56.3562 80.7982 56.3568 80.7981L56.5199 80.7544C56.8934 80.6548 57.2787 80.877 57.3789 81.2502L61.4882 96.5861C61.6249 97.0971 62.1502 97.4006 62.6614 97.2634C63.1724 97.1265 63.4756 96.6012 63.3386 96.0901L59.2294 80.754C58.9281 79.6313 57.9359 78.8753 56.8331 78.819C55.8561 74.6422 55.9598 71.3342 55.9927 70.6842L55.9955 70.6355C55.9976 70.5886 55.9987 70.5414 55.9987 70.4945C55.9987 65.5208 57.874 60.9762 60.9536 57.5286C61.0342 57.4382 61.1156 57.349 61.1978 57.2603C61.2296 57.2261 61.2612 57.1918 61.2932 57.1578C61.382 57.0635 61.4717 56.9702 61.5621 56.8777C61.5874 56.852 61.6122 56.826 61.6375 56.8004C61.7476 56.6891 61.8589 56.5792 61.9714 56.4707C61.9768 56.4654 61.9823 56.46 61.9877 56.4548C65.4664 53.1117 70.0699 51.1639 74.8969 51.0172C74.9141 51.0168 74.9309 51.0157 74.9481 51.0152C75.119 51.0105 75.2902 51.008 75.4616 51.0078C75.4623 51.0078 75.4632 51.0078 75.4641 51.0078C75.4669 51.0078 75.4695 51.0079 75.4715 51.0079L75.5038 51.008L75.5363 51.0079C75.5376 51.0079 75.5402 51.0078 75.5431 51.0078C75.7154 51.0079 75.8875 51.0105 76.0594 51.0153C76.0754 51.0157 76.0913 51.0168 76.1073 51.0172C81.1066 51.1683 85.8662 53.2516 89.3855 56.8159C89.3936 56.8241 89.4016 56.8324 89.4097 56.8407C89.5184 56.9511 89.626 57.0631 89.7323 57.1765C89.7498 57.1952 89.7669 57.2139 89.7843 57.2326C89.8821 57.3377 89.9788 57.4438 90.0745 57.5513C93.1421 60.9962 95.0094 65.5317 95.0094 70.4946C95.0094 70.5415 95.0106 70.5887 95.0127 70.6377L95.0148 70.6807C95.0487 71.3427 95.1536 74.6713 94.1619 78.8745C93.9805 78.8353 93.7957 78.8146 93.6104 78.8146C92.4288 78.8146 91.3897 79.6123 91.0835 80.7544L85.7168 100.784C85.5358 101.46 85.6287 102.165 85.9781 102.77C86.3274 103.376 86.8918 103.808 87.5671 103.989L92.3742 105.277C92.5959 105.337 92.8241 105.367 93.0525 105.367H93.0526C93.9288 105.367 94.7259 104.928 95.2043 104.235C95.6339 104.323 96.0703 104.369 96.5066 104.369C99.4355 104.369 102.011 102.391 102.769 99.5594L105.239 90.3422C106.131 87.0125 104.252 83.583 101.023 82.5089ZM54.4593 102.404C53.4474 102.552 52.4224 102.358 51.5231 101.839C50.4656 101.229 49.7092 100.243 49.393 99.0631L46.9232 89.8459C46.3183 87.5886 47.5212 85.2661 49.6399 84.4193L54.4593 102.404ZM54.0823 70.4941C54.0823 70.5114 54.0819 70.5287 54.0813 70.5382L54.0788 70.5831C54.0436 71.2799 53.9325 74.7897 54.9519 79.1909L54.0992 79.4194L52.7826 79.772C51.7199 75.2343 51.7962 71.5585 51.8492 70.4886C51.8499 70.4735 51.8504 70.4584 51.8504 70.4432C51.8623 64.7392 53.9094 59.502 57.3007 55.4192L58.8845 57.0028C55.8842 60.6873 54.0823 65.3846 54.0823 70.4941ZM90.7573 55.4808C90.6872 55.4096 90.6165 55.3388 90.5454 55.2687C90.4939 55.218 90.4422 55.1673 90.3902 55.1171C90.3112 55.0407 90.2316 54.965 90.1513 54.8898C90.1067 54.848 90.0622 54.8062 90.0173 54.7649C89.9252 54.6801 89.8322 54.596 89.7387 54.5127C89.7054 54.4832 89.6722 54.4534 89.6389 54.424C89.5276 54.3262 89.4153 54.2296 89.302 54.1341C89.2861 54.1208 89.2706 54.1073 89.2547 54.0941C85.6673 51.0848 81.0832 49.2273 76.0766 49.0991C75.8967 49.0943 75.7167 49.092 75.5363 49.0917C75.5336 49.0917 75.5235 49.0918 75.5208 49.0918H75.4869C75.481 49.0916 75.4729 49.0885 75.469 49.0917C75.2888 49.0918 75.1085 49.0943 74.9288 49.0991C70.1085 49.2225 65.6796 50.9495 62.155 53.7637C62.1487 53.7687 62.1425 53.7736 62.1365 53.7786C62.0116 53.8785 61.8878 53.9796 61.7653 54.0824C61.7351 54.1076 61.7054 54.1332 61.6753 54.1585C61.5769 54.2417 61.4792 54.3256 61.3822 54.4107C61.3352 54.4519 61.2887 54.4936 61.242 54.5353C61.1625 54.6063 61.0833 54.6777 61.0049 54.75C60.9472 54.8032 60.8899 54.8568 60.8327 54.9105C60.7658 54.9735 60.6993 55.0366 60.6332 55.1004C60.5691 55.1623 60.5054 55.2247 60.4419 55.2873C60.3835 55.3452 60.3252 55.4035 60.2674 55.4619C60.2319 55.4978 60.1957 55.5328 60.1604 55.5691L58.5861 53.9948C58.787 53.789 58.9905 53.586 59.1986 53.3876C59.2048 53.3817 59.2109 53.376 59.217 53.3702C59.3413 53.2521 59.4669 53.1355 59.5938 53.0202C59.6184 52.9977 59.6432 52.9754 59.668 52.9533C59.7764 52.8555 59.8856 52.7587 59.9959 52.6628C60.047 52.6185 60.0984 52.5746 60.1498 52.5307C60.2345 52.4581 60.3198 52.386 60.4057 52.3145C60.4934 52.2418 60.5817 52.1701 60.6703 52.0987C60.7211 52.0577 60.772 52.0163 60.8231 51.9757C60.9626 51.8654 61.1028 51.7561 61.2445 51.6491C61.2458 51.6482 61.247 51.6472 61.2482 51.6463C65.3231 48.569 70.3223 46.8604 75.4795 46.8603C75.4944 46.8607 75.5095 46.8608 75.5241 46.8606L75.5304 46.8604C75.5306 46.8604 75.5308 46.8604 75.5311 46.8604C75.7723 46.8606 76.0129 46.8658 76.2528 46.8732C76.341 46.8759 76.4292 46.8796 76.5173 46.8834C76.6624 46.8894 76.8069 46.8975 76.9515 46.906C77.0663 46.913 77.1811 46.9193 77.2957 46.928C77.34 46.9313 77.3841 46.9361 77.4283 46.9395C83.0854 47.4019 88.4296 49.9057 92.4233 53.9922L90.8455 55.5693C90.8166 55.5395 90.7866 55.5105 90.7573 55.4808ZM94.9062 98.5326L93.7275 102.931C93.6458 103.237 93.3677 103.451 93.0517 103.451C92.9906 103.451 92.9293 103.443 92.8691 103.427L88.062 102.138C87.881 102.09 87.7297 101.974 87.6362 101.812C87.5426 101.65 87.5177 101.461 87.5662 101.28L92.9329 81.2498C93.0151 80.9437 93.2933 80.7298 93.6095 80.7298C93.6705 80.7298 93.7319 80.7379 93.7919 80.754L94.603 80.9713C94.6041 80.9715 94.6048 80.9719 94.6058 80.9722L98.3636 81.979L98.5755 82.0359C98.5866 82.0394 98.5979 82.0428 98.6061 82.0453C98.6087 82.046 98.6112 82.0463 98.6137 82.047C98.9781 82.1534 99.1935 82.5326 99.0949 82.9008L99.0788 82.961C99.0783 82.9626 99.0776 82.9643 99.0772 82.966L94.9062 98.5326ZM103.388 89.8459L100.918 99.0631C100.383 101.059 98.5689 102.453 96.5055 102.453C96.2873 102.453 96.0687 102.437 95.8516 102.406L100.671 84.418C102.79 85.2649 103.993 87.5884 103.388 89.8459Z" fill="#AA8656"/>
<path d="M88.1669 80.9109C87.6556 80.7737 87.1306 81.0772 86.9937 81.5881L82.5915 98.0177C82.4545 98.5287 82.7578 99.0539 83.2687 99.1909C83.3517 99.2133 83.4353 99.2238 83.5172 99.2238C83.9402 99.2238 84.3271 98.9416 84.4417 98.5135L88.8439 82.084C88.9811 81.573 88.6779 81.0476 88.1669 80.9109Z" fill="#AA8656"/>
<path d="M63.317 81.5883C63.18 81.0771 62.6544 80.7737 62.1438 80.9109C61.6327 81.0478 61.3295 81.573 61.4665 82.084L65.8682 98.5135C65.9828 98.9416 66.3699 99.2239 66.7927 99.2239C66.8749 99.2239 66.9582 99.2133 67.0411 99.191C67.5522 99.0543 67.8554 98.5289 67.7184 98.0178L63.317 81.5883Z" fill="#AA8656"/>
</g>
<rect x="75.0039" y="2.12181" width="103.066" height="103.066" transform="rotate(45 75.0039 2.12181)" stroke="#AA8656" stroke-width="3"/>
<defs>
<clipPath id="clip0_824_20">
<rect width="60.6092" height="60.6092" fill="white" transform="translate(44.8516 44.8511)"/>
</clipPath>
</defs>
</svg>
